<svg id="Layer_1" data-name="Layer 1" xmlns="http://www.w3.org/2000/svg" viewBox="0 0 321.98 73.93"><defs><style>.cls-1{fill:#fff;}.cls-2{fill:#5b9ad4;}.cls-2,.cls-3,.cls-4{fill-rule:evenodd;}.cls-3{fill:#2f5495;}.cls-4{fill:#e2000f;}</style></defs><rect class="cls-1" width="321.98" height="73.93" rx="36.97"/><path class="cls-2" d="M220.55,37.05h17.08v6.07H220.55Zm-12.9-11.39a10,10,0,0,1,6.75,2.14,6.19,6.19,0,0,1,2.5,4.77,3.56,3.56,0,0,1-1,2.67,3.61,3.61,0,0,1-2.65,1,3.84,3.84,0,0,1-2.85-1.14A6.61,6.61,0,0,1,209,31a4.43,4.43,0,0,0-.85-2.58,2.05,2.05,0,0,0-1.58-.73,2.86,2.86,0,0,0-2.4,1.49c-1,1.51-1.52,3.81-1.52,6.92a22.25,22.25,0,0,0,1.23,7.39,11.3,11.3,0,0,0,3.37,5.26A6,6,0,0,0,211,50a5.8,5.8,0,0,0,2.73-.67,12.71,12.71,0,0,0,3-2.55l.9.7a13.56,13.56,0,0,1-4.81,5.41,11.56,11.56,0,0,1-6.14,1.77A10.63,10.63,0,0,1,198,50.56a15.44,15.44,0,0,1-3.28-9.93,16.67,16.67,0,0,1,3-9.84A11.5,11.5,0,0,1,207.65,25.66ZM38.23,13.32h.56L53.12,45.9c1.36,3.09,2.49,5,3.36,5.83a4.63,4.63,0,0,0,2.82,1.06v1.08H40.08V52.79h.79a6,6,0,0,0,3.25-.65,1.56,1.56,0,0,0,.65-1.34,3.5,3.5,0,0,0-.18-1.09c0-.17-.33-.91-.88-2.2L41.6,42.56h-14L25.9,46.43a8.53,8.53,0,0,0-.82,3.19,2.64,2.64,0,0,0,1.35,2.46,11.1,11.1,0,0,0,3.89.71v1.08H17.11V52.79A5.93,5.93,0,0,0,20.63,51,23.42,23.42,0,0,0,24,45ZM67.29,26.48H91.43v1.08c-2,0-2.93,1.27-2.93,3.69V48.86a5.48,5.48,0,0,0,.61,3,2.72,2.72,0,0,0,2.32,1v1.08H76.92V52.79a4.16,4.16,0,0,0,2.42-.72c.64-.46,1-1.49,1-3.09V28.32H72.56v12a41,41,0,0,1-.65,8.93A6.49,6.49,0,0,1,69.42,53a6.61,6.61,0,0,1-3.92,1.32,5.1,5.1,0,0,1-3.77-1.42,4.53,4.53,0,0,1-1.42-3.27,4.13,4.13,0,0,1,1-2.91A3.5,3.5,0,0,1,64,45.61q3.14,0,3.14,3.81c0,1.15.22,1.73.67,1.73.86,0,1.53-.72,2-2.14s.71-4.33.71-8.7v-8a6.57,6.57,0,0,0-.74-3.69,3.09,3.09,0,0,0-2.51-1.09Zm28.65,0h14v1.08a3.07,3.07,0,0,0-2.33,1.22,7.26,7.26,0,0,0-.57,3.44v6.53h2.11q7.16,0,10.78,2t3.63,5.64a6.14,6.14,0,0,1-3.22,5.42q-3.23,2-9.55,2H95.94V52.79a3.17,3.17,0,0,0,2.3-1.13,6.39,6.39,0,0,0,.6-3.3V31.81a5.56,5.56,0,0,0-.63-3.1,3.31,3.31,0,0,0-2.27-1.15Zm45.27,0h14.33v1.08a2.92,2.92,0,0,0-2.13.74c-.5.48-.74,1.66-.74,3.51V47.43a9.06,9.06,0,0,0,.64,4.14,2.62,2.62,0,0,0,2.23,1.22v1.08h-14V52.79c1.94-.1,2.9-1.74,2.9-4.92V41.51l-1.2.06q-.44,0-1.38-.06l-4.65,12.36H126.39V52.79q3.2,0,4.54-3.64l3.16-8.52q-6.21-1.93-6.21-7a6.35,6.35,0,0,1,1.64-4.4,7.2,7.2,0,0,1,3.85-2.3A42.92,42.92,0,0,1,141.21,26.48Zm18.72,0h13.95v1.08a2.79,2.79,0,0,0-2.07.76c-.4.47-.6,1.54-.6,3.2v7.23h7.85V31.52a7.53,7.53,0,0,0-.44-3c-.29-.63-1-1-2.19-1V26.48h13.91v1.08a3,3,0,0,0-2.39.84,4.49,4.49,0,0,0-.68,2.8V48.63c0,1.72.22,2.83.67,3.34a3.3,3.3,0,0,0,2.4.82v1.08H176.43V52.79a2.73,2.73,0,0,0,2-.69c.39-.44.58-1.53.58-3.27V40.6h-7.85v8a6.2,6.2,0,0,0,.6,3.38,2.46,2.46,0,0,0,2.07.78v1.08H159.93V52.79a2.89,2.89,0,0,0,2.39-.87,5.55,5.55,0,0,0,.69-3.29V31.81a5.84,5.84,0,0,0-.68-3.41,2.92,2.92,0,0,0-2.4-.84Zm-125.24.23-6.1,13.68h12Zm106.87,1.61a4.66,4.66,0,0,0-3.76,1.51,5.69,5.69,0,0,0-1.28,3.8,5.84,5.84,0,0,0,1.76,4.46,7.37,7.37,0,0,0,5.25,1.66l.93,0v-11A13.16,13.16,0,0,0,141.56,28.32ZM107,40.6v8.53q0,2,.66,2.46a2.7,2.7,0,0,0,1.6.46,5.67,5.67,0,0,0,4-1.56A5.53,5.53,0,0,0,115,46.25Q115,40.6,107,40.6Z"/><path class="cls-2" d="M38.23,13.06h.57a.26.26,0,0,1,.24.16L53.36,45.8l.5,1.1.48,1,.45.89.43.77.41.67.37.56.36.44.3.31.52.38.61.3.71.2.84.12a.27.27,0,0,1,.23.26v1.08a.27.27,0,0,1-.27.27H40.08a.27.27,0,0,1-.27-.27V52.79a.26.26,0,0,1,.27-.26h.79l1.07,0,.87-.13.67-.18.5-.25.22-.22.17-.25.1-.31,0-.36,0-.48-.13-.53,0-.09,0-.13-.07-.18-.1-.25-.12-.3-.15-.35-.16-.4-.2-.46-2-4.79H27.75l-1.6,3.71-.36.91-.25.83-.15.73-.05.61.08.72.23.61.38.5.54.41.21.1.27.09.37.1.43.09.52.08.58.07.67.08.73.06a.25.25,0,0,1,.24.26v1.08a.26.26,0,0,1-.26.27H17.11a.27.27,0,0,1-.26-.27V52.79a.27.27,0,0,1,.2-.26l1-.23.89-.35.8-.49.71-.64.33-.38.36-.5.39-.59.41-.69.43-.79.45-.88.47-1,.5-1.08L38,13.22a.26.26,0,0,1,.24-.16m.18.53L24.27,45.14l-.5,1.09-.48,1-.45.9-.44.8-.43.71-.4.62-.39.52-.37.44-.74.65,0,0-.84.52,0,0-.93.37h0l-.81.18v.61H30.06V53l-.5,0-.68-.07-.6-.08-.53-.08-.47-.1-.4-.11-.33-.11-.24-.12,0,0-.59-.45-.06-.05-.42-.56,0-.07-.26-.67a.15.15,0,0,1,0-.07l-.09-.78v0l.06-.71.16-.78.27-.86.36-.93,1.67-3.87a.28.28,0,0,1,.25-.16h14a.28.28,0,0,1,.24.16L44,47.41l.2.47.16.4.15.36.12.3.1.25.08.2.06.17,0,.09.14.55v0l0,.53v0l0,.41a.13.13,0,0,1,0,.06l-.12.37,0,.06-.2.31,0,0-.28.26-.06,0-.56.28,0,0-.76.21L42,53l-1.09,0h-.53v.55H59V53l-.63-.09h0l-.75-.22,0,0-.65-.31,0,0-.56-.4,0,0-.36-.37-.38-.48-.38-.58-.42-.68L54.32,49l-.46-.9-.48-1L52.88,46,38.62,13.59ZM207.64,25.4l1.05,0,1,.11.95.16.89.24.84.31.79.37.73.45.67.52.61.56.52.58.45.58.37.62.29.63.2.65.13.67,0,.68-.06.83a.07.07,0,0,1,0,0l-.19.71,0,.05-.32.62,0,0-.44.54,0,0-.54.43-.05,0-.62.32,0,0-.71.18h0l-.78.06h-.05l-.82-.07h-.05l-.76-.21-.05,0-.68-.36,0,0-.6-.5,0,0-.27-.31-.26-.4-.23-.45-.2-.5-.17-.56-.13-.62-.11-.65-.08-.73-.12-.84-.17-.67-.23-.53-.27-.39-.31-.28-.34-.2L207,28l-.39,0-.3,0-.31.07-.27.09-.29.16-.27.19-.25.24-.25.28-.24.33-.34.58-.3.66-.26.72-.2.81-.16.88L203,34l-.07,1,0,1.11L203,38l.23,1.85.38,1.81.53,1.76.32.84.34.79.38.72.39.67.43.62.45.56.48.5.5.44.79.52.88.37.94.23,1,.07.67,0,.65-.11.65-.22.62-.28.65-.39.71-.55.77-.7.84-.85a.26.26,0,0,1,.35,0l.91.71a.25.25,0,0,1,.07.34l-.5.88-.53.83-.58.78-.59.71-.63.67-.66.6-.69.54-.72.49-.75.42-.76.37-.76.31-.78.26-.79.2-.8.13-.81.09-.83,0-1.35-.07-1.3-.19-1.23-.33-1.15-.46-1.1-.59-1-.73-.95-.86-.87-1L197,49.66l-.68-1.13-.58-1.18-.46-1.24-.37-1.29-.27-1.34-.15-1.39-.06-1.45,0-1.39.14-1.36.24-1.32.33-1.26.43-1.24.52-1.18.61-1.14.72-1.11,1-1.22,1-1.06,1.14-.9,1.23-.74,1.31-.58,1.4-.41,1.49-.25Zm0,.53-1.51.08-1.43.23-1.34.39-1.25.54-1.17.7-1.09.86-1,1-.93,1.18L197.25,32l-.6,1.11-.5,1.14-.42,1.19-.32,1.23L195.18,38,195,39.26l0,1.36L195,42l.15,1.35.26,1.29.35,1.26.45,1.19.55,1.14.66,1.09.75,1,.84,1,.9.82,1,.69,1,.57,1.1.44,1.17.32,1.24.18,1.31.07.8,0,.77-.08.76-.13.76-.19.74-.24.73-.3.73-.35.71-.4.69-.46.66-.53.64-.57.6-.64.58-.69.55-.74.52-.82.39-.67-.55-.42-.69.7-.81.73-.76.58-.7.43-.68.3-.67.22h0l-.72.13-.75,0L210,50.23h-.05l-1-.24h0l-.92-.39,0,0-.87-.57-.53-.48L206,48l-.48-.59-.44-.65-.41-.69-.39-.76-.35-.81-.33-.87-.55-1.81-.38-1.85-.24-1.9-.07-1.93,0-1.14.08-1.06.12-1,.17-.91.21-.85.28-.77.32-.71.37-.62.27-.37.29-.32.3-.28.33-.23.3-.16,0,0,.35-.12.33-.07h0l.35,0h0l.44,0,.06,0,.41.14.05,0,.38.23,0,0,.36.32,0,0,.31.44,0,.05.24.57s0,0,0,0l.18.74.12.87.08.69.11.63.12.57.16.52.18.46.19.4.22.34.26.3.56.46.62.34.71.19.78.07.73,0,.66-.18.57-.29.5-.4.4-.49.29-.58.18-.65.06-.74,0-.61-.11-.61-.19-.59-.25-.58-.34-.57-.42-.55-.49-.54-.57-.53-.63-.49-.68-.42-.74-.36-.8-.29-.85-.23-.91-.16-.95-.1Zm-140.38.29H91.43a.26.26,0,0,1,.27.26v1.09a.26.26,0,0,1-.24.26l-.67.07-.53.17-.45.26-.37.36-.29.47-.21.58-.14.71,0,.82v17.6l0,.93.12.77.17.61.24.48.33.34.45.27.59.18.76.08a.27.27,0,0,1,.24.26v1.08a.27.27,0,0,1-.27.27H76.93a.27.27,0,0,1-.27-.27V52.79a.26.26,0,0,1,.24-.26l.7-.06.58-.13.54-.21.47-.27.18-.17.17-.21.14-.27.12-.34.1-.39L80,50l0-.49L80,49V28.59h-7.2V41.87l0,1.43-.05,1.31-.07,1.18-.09,1.07-.12.94-.13.81-.16.69-.4,1.19s0,0,0,0l-.55,1a.05.05,0,0,1,0,0l-.7.88,0,0-.85.72,0,0-.94.58,0,0-1,.41h0l-1,.25h0l-1,.08h0l-1.12-.09h0l-1-.26,0,0-.88-.44a.1.1,0,0,1,0,0l-.77-.62,0,0-.63-.75,0,0-.45-.79,0-.06-.26-.84a.43.43,0,0,0,0-.05l-.09-.9v0l.07-.86v0l.2-.77s0,0,0,0l.32-.69,0,0,.45-.61,0,0,.55-.49.06,0,.63-.34,0,0,.71-.22h0l.78-.07h0l.73.06h0l.64.18,0,0,.54.29.06,0,.44.42,0,.05L67,47a.08.08,0,0,1,0,0l.25.66a.06.06,0,0,1,0,0l.15.77.05.93v.41l0,.33,0,.28.06.2.06.13.07.07.06,0h.08l.24,0,.24-.09.23-.14.23-.2.21-.28.21-.34.19-.41.18-.48.16-.58.14-.72.11-.87.1-1,.08-1.15,0-1.29,0-1.43V32.34l0-.64,0-.59,0-.52-.09-.47L70,29.7l-.12-.36-.14-.3-.14-.23-.39-.39-.51-.29-.64-.2-.8-.1a.26.26,0,0,1-.24-.26V26.48A.26.26,0,0,1,67.29,26.22Zm28.65,0h14a.26.26,0,0,1,.27.26v1.09a.28.28,0,0,1-.21.26l-.78.17-.61.24-.45.31-.32.38-.12.24-.1.27-.09.34-.08.39-.06.43,0,.49,0,.55v6.85h1.84l1.74,0,1.63.1,1.53.16,1.42.23,1.3.28,1.2.35,1.1.42,1,.49.88.55.76.6.64.65.54.71s0,0,0,0l.4.73s0,0,0,0l.28.78s0,0,0,0l.17.82.06.91,0,.86-.15.82-.26.78s0,0,0,0l-.36.69-.47.69-.58.65-.67.59-.79.54-.87.49-1,.42-1.06.36-1.17.29-1.26.22L113.8,54l-1.46.1-1.54,0H95.94a.27.27,0,0,1-.27-.27V52.79a.27.27,0,0,1,.22-.26l.76-.15.6-.22.45-.29.33-.36.12-.22.11-.26.1-.33.07-.36.07-.42,0-.47,0-.52V31.81l0-1L98.42,30l-.18-.63L98,28.86l-.32-.34-.47-.3L96.62,28l-.74-.16a.28.28,0,0,1-.21-.26V26.48A.26.26,0,0,1,95.94,26.22Zm45.27,0h14.33a.26.26,0,0,1,.27.26v1.09a.26.26,0,0,1-.25.26l-.62.05-.53.12-.44.2-.37.29-.14.17-.13.24-.12.33-.1.38-.08.45-.05.52,0,.59,0,.65V48.16l0,.66.05.6.08.53.08.48.11.4.12.35.13.25.34.44.44.33.56.21.7.12a.27.27,0,0,1,.23.26v1.08a.27.27,0,0,1-.27.27h-14a.27.27,0,0,1-.27-.27V52.79a.27.27,0,0,1,.23-.26l.64-.11.53-.22.44-.35.37-.5.3-.65.22-.8.13-.95,0-1.09V41.79H144l-.35,0h-1l-.38,0h-.24L137.48,54a.27.27,0,0,1-.25.18H126.39a.27.27,0,0,1-.27-.27V52.79a.26.26,0,0,1,.25-.26l.75-.07.67-.16.61-.27.56-.37.5-.48.48-.61.4-.69.35-.82,3.07-8.26-.5-.17-.71-.28-.68-.31-.62-.34-.57-.36-.53-.38-.48-.41-.43-.44-.37-.47-.34-.49-.28-.52-.22-.54-.18-.57-.13-.59-.08-.62,0-.64,0-.65.08-.63.13-.61.19-.59.24-.56.29-.53.35-.52.4-.48.87-.85,0,0,.93-.65,0,0,1-.5h0l1.07-.33.64-.11.72-.1.83-.09.93-.07,1-.06,1.14,0,1.26,0Zm18.73,0h13.94a.25.25,0,0,1,.26.26v1.09a.26.26,0,0,1-.23.26l-.66.07-.52.14-.41.2-.31.26-.11.16-.11.24-.09.29-.07.35-.07.41,0,.46,0,.53v7.55h7.32v-7l0-.94-.08-.81-.12-.64-.18-.48-.25-.35-.39-.25-.57-.16-.77-.06a.26.26,0,0,1-.25-.26V26.48a.26.26,0,0,1,.27-.26h13.92a.25.25,0,0,1,.26.26v1.09a.25.25,0,0,1-.24.26l-.77.05L189,28l-.48.23-.35.31-.26.43-.2.58-.13.75,0,.88v18l0,.55,0,.49.07.43.09.37.11.31.11.23.13.17.35.3.48.22.64.15.76.07a.25.25,0,0,1,.24.26v1.08a.26.26,0,0,1-.26.27H176.43a.27.27,0,0,1-.27-.27V52.79a.26.26,0,0,1,.25-.26l.65-.05.53-.13.4-.18.3-.25.1-.15.11-.23.09-.29.08-.35.05-.42.05-.49,0-.54V40.87h-7.32v8.38l0,.56,0,.49.07.44.08.38.1.31.1.23.11.18.31.29.4.22.52.13.65.05a.25.25,0,0,1,.24.26v1.08a.26.26,0,0,1-.26.27H159.94a.27.27,0,0,1-.27-.27V52.79a.26.26,0,0,1,.25-.26l.76-.05.61-.16.47-.24.36-.32.14-.22.12-.26.11-.31.09-.37.07-.41,0-.47,0-.52v-18l0-.55,0-.5-.07-.44-.09-.38-.11-.32-.12-.25-.13-.18-.35-.32-.47-.23-.61-.15-.78-.05a.26.26,0,0,1-.25-.26V26.48A.26.26,0,0,1,159.94,26.22ZM34.7,26.45a.26.26,0,0,1,.24.16L40.85,40.3a.25.25,0,0,1,0,.25.27.27,0,0,1-.22.12h-12a.29.29,0,0,1-.23-.12.3.3,0,0,1,0-.26l6.1-13.68A.26.26,0,0,1,34.7,26.45Zm32.85.3v.58l.59.07h0l.7.22,0,0,.57.33a.1.1,0,0,1,0,0l.44.44,0,.05.19.31.16.35.14.41.1.45.08.5.06.56,0,.6,0,.65v9.55l0,1.43-.05,1.31-.08,1.16-.1,1-.12.9-.15.76-.17.62-.2.53-.22.46-.24.39-.23.3,0,0-.27.24,0,0-.27.16,0,0-.29.11h-.07l-.31,0h-.08l-.15,0-.08,0-.14-.07-.07-.06-.12-.14,0-.06-.1-.23L67,50.52,67,50.2l0-.37v-.39l0-.86-.14-.75-.23-.61-.31-.48-.39-.38-.48-.26-.59-.16L64,45.88l-.73.06-.65.2-.59.32-.51.46-.42.56-.3.65-.19.71-.06.81.08.85.25.79.42.74.6.71.72.58.83.42,1,.25,1.07.09,1-.08,1-.24.93-.39.9-.56.81-.7.67-.84.53-1,.38-1.11.14-.67.14-.79.11-.92.09-1.05.07-1.17.05-1.3,0-1.43V28.33a.26.26,0,0,1,.26-.27h7.73a.27.27,0,0,1,.27.27V49l0,.59,0,.54-.08.49L80.3,51l-.12.36s0,0,0,0l-.17.31,0,0-.19.26,0,0-.23.19,0,0-.51.3,0,0-.57.22,0,0-.67.14-.46,0v.58h14V53L90.62,53h-.05l-.64-.19-.06,0-.51-.3a.18.18,0,0,1-.07,0l-.37-.4,0-.06-.27-.53,0,0-.2-.7-.12-.83,0-1V31.24l0-.88.14-.74a.06.06,0,0,1,0,0l.23-.63,0-.05.32-.52,0-.05.41-.4.05,0,.51-.3,0,0,.59-.19h.06l.45,0v-.58Zm28.65,0v.61l.55.11,0,0,.63.24,0,0,.51.33,0,0,.37.4,0,0,.27.53s0,0,0,.05l.21.73.12.89,0,1V49l0,.54,0,.5-.07.45-.09.41-.11.37-.14.32-.14.25,0,0-.37.41,0,0-.51.32-.05,0-.65.24h0L96.2,53v.6h14.59l1.52,0,1.43-.1,1.32-.15,1.22-.22,1.13-.28,1-.33.93-.41.83-.45.74-.51.63-.55.53-.59.44-.63.34-.68.24-.69.14-.75,0-.79,0-.84-.16-.81-.27-.74-.38-.69-.48-.65-.6-.6-.71-.57-.84-.52-.93-.47-1.06-.41-1.16-.34-1.28-.28L114,39.31l-1.5-.16-1.61-.1-1.73,0h-2.1a.26.26,0,0,1-.27-.26V31.61l0-.56.05-.52.06-.46.09-.43.1-.38.13-.33.13-.27,0-.05.36-.43.06-.05.51-.35,0,0,.65-.26,0,0,.6-.13v-.6Zm45,0h-1.35l-1.25,0-1.13,0-1,.06-.93.07-.81.08-.7.1-.57.1-1.06.32-1,.47-.89.63-.82.79-.37.45-.32.47-.27.49-.22.51-.18.54-.12.57-.08.58,0,.61,0,.59.07.58.11.54.17.52.2.5.25.47.31.46.34.43.4.4.45.39.49.37.54.34.59.32.65.29.69.28.75.25a.32.32,0,0,1,.16.14.3.3,0,0,1,0,.21l-3.17,8.54-.38.87-.45.76-.48.62,0,0-.53.51,0,0-.6.4,0,0-.65.28,0,0-.72.17h0l-.53,0v.58h10.4l4.59-12.19a.26.26,0,0,1,.26-.17l.44,0,.37,0h.91l.37,0,.46,0a.26.26,0,0,1,.2.07.27.27,0,0,1,.08.19v6.37l0,1.14-.14,1-.23.83a.08.08,0,0,1,0,0l-.32.69,0,0-.41.55,0,.05-.5.4-.06,0-.59.24-.06,0-.46.08v.59h13.45V53l-.52-.09h0l-.62-.24-.06,0-.49-.36s0,0,0-.05l-.38-.49a.05.05,0,0,1,0-.05l-.17-.33-.13-.39-.12-.45-.09-.5-.08-.56-.05-.62,0-.67V31.81l0-.67,0-.62.06-.55.09-.5.11-.43.13-.34,0,0,.15-.28s0,0,0-.05l.18-.21,0,0,.41-.33.05,0,.5-.22.05,0,.57-.13h0l.4,0v-.57Zm19,0v.57l.56,0h0l.66.16,0,0,.54.25.06.05.4.37.05,0,.15.24,0,0,.15.32.13.37.1.42.07.47,0,.52,0,.58v18l0,.54-.06.51-.07.45-.11.42-.13.36-.16.32-.16.24a.1.1,0,0,1,0,0l-.4.38-.06,0-.54.27-.05,0-.66.17h0l-.54,0v.57h13.41V53l-.43,0h0l-.57-.15-.06,0-.47-.25a.1.1,0,0,1,0,0l-.36-.34,0-.05-.14-.22s0,0,0,0l-.13-.3-.11-.36-.09-.41-.07-.47,0-.51,0-.59V40.6a.27.27,0,0,1,.27-.26h7.85a.26.26,0,0,1,.26.26v8.88l0,.56-.05.51-.06.46-.09.41-.12.34-.12.26a.08.08,0,0,0,0,0l-.14.19,0,.06-.35.29-.06,0-.46.21-.05,0-.57.14h0l-.43,0v.57h13.39V53l-.59-.06-.67-.15,0,0-.54-.25a.1.1,0,0,1,0,0l-.41-.33,0,0-.16-.22a.05.05,0,0,1,0,0l-.15-.3-.13-.37-.09-.4-.08-.46,0-.52,0-.57V31.19l.05-.94.13-.77a.09.09,0,0,1,0-.05l.22-.63s0,0,0-.05l.3-.49a.12.12,0,0,1,.05-.05l.4-.37.07-.05.54-.25.05,0,.66-.16h0l.54,0v-.57H176.69v.57l.55,0h.06l.63.18.06,0,.48.3a.16.16,0,0,1,.07.07l.3.42a.21.21,0,0,1,0,.06l.19.54a.06.06,0,0,1,0,0l.14.71.08.84,0,1v7.24a.25.25,0,0,1-.26.26h-7.85a.26.26,0,0,1-.27-.26V30.91l0-.55,0-.49.07-.45.09-.4.11-.34.12-.26,0,0,.14-.21,0,0,.35-.31.06,0,.47-.23,0,0,.57-.15h0l.43,0v-.58Zm-125.51.62L29,40.14H40.21Zm106.89.69.64,0,.71.08.77.13.82.18a.27.27,0,0,1,.21.26v11a.26.26,0,0,1-.26.26l-.54,0h-.41l-.87,0-.8-.09-.76-.13-.71-.19-.65-.24-.61-.3-.54-.36-.49-.41-.43-.46-.37-.48L137,36.8l-.25-.56-.2-.6-.14-.64-.09-.68,0-.71.09-1.1v0l.24-1a.06.06,0,0,1,0,0l.4-.91,0-.05.57-.8,0,0,.36-.37.41-.33.43-.27.48-.23.52-.17.55-.12.59-.08Zm0,.53-.59,0-.54.08-.51.11-.46.15-.42.21-.38.24-.35.29L138,30l-.54.77-.37.86-.23.94-.08,1.08,0,.65.08.63.14.59.18.55.23.52.29.47.34.44.4.42.44.37.49.31.55.27.61.23.65.17.72.12.77.08.82,0h.67V29l-.62-.13-.74-.13-.68-.08Zm79,8.2h17.08a.26.26,0,0,1,.26.27v6.06a.26.26,0,0,1-.26.27H220.55a.26.26,0,0,1-.26-.27V37.06A.26.26,0,0,1,220.55,36.79Zm.27.53v5.54h16.54V37.32Zm-113.77,3,1,0,.9.07.85.11.8.16.73.21.67.25.61.3.56.35.48.39.43.45.35.5.29.54.23.58.16.62.1.67,0,.71,0,.68-.09.63-.13.61-.2.57-.24.54-.31.5-.36.47-.42.42-.44.38-.47.34-.5.28-.51.23-.53.18-.55.12-.56.08-.59,0-.46,0h0l-.41-.09,0,0L108,52l0,0-.35-.2,0,0-.16-.14,0,0-.13-.18,0-.05-.12-.27-.1-.3-.08-.36-.05-.39,0-.44v-9a.27.27,0,0,1,.08-.19A.26.26,0,0,1,107.05,40.34Zm.26.53V49.6l0,.41.05.36.07.32.08.25.09.19.11.14.11.11.31.17.34.13.37.08.44,0,.54,0,.51-.07.5-.12.48-.16.46-.21.45-.26.43-.31.41-.35.38-.39.32-.42.27-.46.22-.48.18-.52.12-.55.08-.59,0-.63,0-.66-.09-.62-.15-.56-.21-.53L114,43.4l-.32-.44-.38-.39-.44-.35-.5-.31-.56-.27-.63-.23-.69-.2-.75-.15-.81-.1-.88-.07Z"/><path class="cls-3" d="M218.67,35.18h17.08v6.07H218.67ZM205.78,23.79a10,10,0,0,1,6.75,2.14A6.19,6.19,0,0,1,215,30.7a3.57,3.57,0,0,1-1,2.67,3.62,3.62,0,0,1-2.65,1,3.87,3.87,0,0,1-2.86-1.14,6.68,6.68,0,0,1-1.39-4.07,4.43,4.43,0,0,0-.85-2.58,2.07,2.07,0,0,0-1.58-.73,2.86,2.86,0,0,0-2.4,1.49c-1,1.51-1.52,3.81-1.52,6.92A22.3,22.3,0,0,0,202,41.64a11.36,11.36,0,0,0,3.36,5.26,6,6,0,0,0,3.81,1.26,5.8,5.8,0,0,0,2.73-.67,12.71,12.71,0,0,0,3-2.55l.9.7A13.64,13.64,0,0,1,211,51.05a11.53,11.53,0,0,1-6.13,1.77,10.61,10.61,0,0,1-8.76-4.13,15.46,15.46,0,0,1-3.28-9.93,16.72,16.72,0,0,1,3-9.85A11.52,11.52,0,0,1,205.78,23.79ZM36.36,11.45h.56L51.24,44q2.05,4.63,3.37,5.83a4.63,4.63,0,0,0,2.82,1.06V52H38.21V50.92H39a6,6,0,0,0,3.25-.65,1.56,1.56,0,0,0,.64-1.35,3.47,3.47,0,0,0-.17-1.08c0-.18-.33-.91-.88-2.2l-2.11-5h-14L24,44.56a8.53,8.53,0,0,0-.82,3.19,2.65,2.65,0,0,0,1.34,2.46,11.23,11.23,0,0,0,3.9.71V52H15.24V50.92a5.91,5.91,0,0,0,3.51-1.78,23.37,23.37,0,0,0,3.4-6ZM65.41,24.61H89.55v1.08q-2.92.06-2.92,3.69V47a5.42,5.42,0,0,0,.61,2.94,2.69,2.69,0,0,0,2.31,1V52H75.05V50.92a4.16,4.16,0,0,0,2.42-.72c.63-.46,1-1.49,1-3.09V26.45H70.69v12A41,41,0,0,1,70,47.37a6.49,6.49,0,0,1-2.49,3.78,6.63,6.63,0,0,1-3.92,1.32,5.08,5.08,0,0,1-3.77-1.42,4.53,4.53,0,0,1-1.42-3.27,4.13,4.13,0,0,1,1-2.91,3.45,3.45,0,0,1,2.68-1.13q3.14,0,3.14,3.81c0,1.15.22,1.73.67,1.73.86,0,1.52-.72,2-2.14s.71-4.33.71-8.7v-8a6.57,6.57,0,0,0-.74-3.69,3.09,3.09,0,0,0-2.52-1.09Zm28.66,0h14v1.08a3.07,3.07,0,0,0-2.33,1.22,7.26,7.26,0,0,0-.57,3.44v6.53h2.11q7.14,0,10.78,2t3.63,5.64A6.15,6.15,0,0,1,118.47,50q-3.23,2-9.55,2H94.07V50.92a3.17,3.17,0,0,0,2.3-1.13,6.39,6.39,0,0,0,.6-3.3V29.94a5.62,5.62,0,0,0-.63-3.11,3.35,3.35,0,0,0-2.27-1.14Zm45.27,0h14.33v1.08a3,3,0,0,0-2.13.73c-.5.49-.75,1.66-.75,3.52V45.55a9.05,9.05,0,0,0,.65,4.15,2.62,2.62,0,0,0,2.23,1.22V52h-14V50.92q2.9-.15,2.9-4.93V39.64l-1.2.06q-.44,0-1.38-.06L135.36,52H124.52V50.92c2.12,0,3.64-1.23,4.54-3.64l3.16-8.52q-6.21-1.93-6.21-7a6.35,6.35,0,0,1,1.64-4.4,7.17,7.17,0,0,1,3.85-2.3A42.92,42.92,0,0,1,139.34,24.61Zm18.72,0H172v1.08a2.75,2.75,0,0,0-2.07.76c-.4.47-.6,1.54-.6,3.2v7.23h7.85V29.65a7.53,7.53,0,0,0-.44-3c-.29-.63-1-.95-2.2-.95V24.61h13.92v1.08a3,3,0,0,0-2.39.84,4.4,4.4,0,0,0-.69,2.79V46.76c0,1.71.23,2.83.68,3.34a3.3,3.3,0,0,0,2.4.82V52H174.55V50.92a2.74,2.74,0,0,0,2.06-.69c.39-.44.58-1.53.58-3.27V38.73h-7.85v8a6.23,6.23,0,0,0,.6,3.38,2.46,2.46,0,0,0,2.07.78V52H158.06V50.92a2.89,2.89,0,0,0,2.39-.87,5.55,5.55,0,0,0,.69-3.29V29.94a5.84,5.84,0,0,0-.68-3.41,2.93,2.93,0,0,0-2.4-.84Zm-125.24.23-6.1,13.68h12Zm106.87,1.61A4.66,4.66,0,0,0,135.93,28a5.69,5.69,0,0,0-1.28,3.8,5.84,5.84,0,0,0,1.76,4.46,7.36,7.36,0,0,0,5.24,1.66l.94,0v-11A13.16,13.16,0,0,0,139.69,26.45ZM105.17,38.73v8.52q0,2,.66,2.46a2.63,2.63,0,0,0,1.6.47,5.63,5.63,0,0,0,4-1.56,5.5,5.5,0,0,0,1.69-4.24Q113.08,38.72,105.17,38.73Z"/><polygon class="cls-4" points="238.69 56.77 241.74 56.77 254.33 11.31 251.66 11.31 238.69 56.77"/><polygon class="cls-3" points="248.23 56.77 250.9 56.77 263.87 11.31 261.2 11.31 248.23 56.77"/><polygon class="cls-3" points="264.63 20.64 274.55 56.77 277.22 56.77 265.77 15.97 264.63 20.64"/><polygon class="cls-3" points="301.25 56.77 303.92 56.77 292.86 15.97 291.33 20.05 301.25 56.77"/><polygon class="cls-3" points="279.13 52.11 290.95 11.31 287.9 11.31 277.98 46.86 279.13 52.11"/><polygon class="cls-4" points="274.55 35.21 281.41 11.31 278.36 11.31 273.02 29.96 274.55 35.21"/><polygon class="cls-4" points="292.1 56.77 295.15 56.77 287.9 32.88 286.37 38.12 292.1 56.77"/><polygon class="cls-4" points="265.01 56.77 268.06 56.77 261.2 32.88 259.67 37.54 265.01 56.77"/></svg>