<?xml version="1.0" encoding="utf-8"?>
<!-- Generator: Adobe Illustrator 26.3.1, SVG Export Plug-In . SVG Version: 6.00 Build 0)  -->
<svg version="1.1" id="Layer_1" xmlns="http://www.w3.org/2000/svg" xmlns:xlink="http://www.w3.org/1999/xlink" x="0px" y="0px"
	 viewBox="0 0 70 60" style="enable-background:new 0 0 70 60;" xml:space="preserve">
<g>
	<path d="M70.24,19.47c-0.54,0.98-1.05,1.97-1.61,2.93c-1.14,1.93-2.7,3.44-4.65,4.56c-2.11,1.22-4.3,2.33-6.29,3.71
		c-1.51,1.04-2.82,2.38-4.12,3.7c-3.04,3.08-6.75,4.52-11.01,4.62c-1.11,0.03-2.23-0.19-3.38-0.3c-0.47,1.1-1.46,1.89-2.38,2.74
		c-3.01,2.8-6.55,4.73-10.36,6.21c-2.57,1-5.16,1.97-7.74,2.96c-2.28,0.87-4.35,2.08-6.25,3.61c-1.36,1.1-2.88,1.88-4.65,2.07
		c-2.76,0.3-5.33-1.18-6.77-3.86c-1.19-2.21-1.7-4.59-1.34-7.06C0.21,41.95,0,38.52-0.03,35.09c-0.03-3.34,0.26-6.65,1.25-9.87
		c1.02-3.3,2.62-6.3,4.78-8.98c3.4-4.21,7.41-7.72,12.27-10.18c4.05-2.05,8.33-2.99,12.82-2c4.99,1.1,8.75,3.92,11.1,8.52
		c0.06,0.11,0.14,0.22,0.21,0.34c2.11-2.19,4.75-2.69,7.61-2.55c2.65,0.13,5.2,0.77,7.7,1.62c4.04,1.37,7.88,3.19,11.59,5.3
		c0.54,0.31,0.96,0.67,1.1,1.28C70.36,18.87,70.3,19.17,70.24,19.47z M38.58,27.33c0.61-3.23,1.2-6.47,1.82-9.7
		c0.19-0.99,0.17-1.96-0.2-2.89c-1.86-4.65-5.4-7.26-10.21-8.18c-3.72-0.71-7.21,0.25-10.53,1.9c-3.71,1.85-6.86,4.45-9.68,7.45
		C6.36,19.55,4,23.77,3.09,28.74c-0.45,2.49-0.5,5.02-0.45,7.54c0.06,3.08,0.17,6.16-0.29,9.24c-0.31,2.11,0.1,4.16,1.25,6.01
		c1.24,2,3.27,2.68,5.4,1.69c0.84-0.39,1.62-0.95,2.35-1.51c1.68-1.3,3.49-2.4,5.46-3.18c2.81-1.12,5.64-2.18,8.46-3.27
		c4.13-1.6,7.92-3.71,10.95-7.02c0.22-0.24,0.4-0.57,0.46-0.89C37.34,34.01,37.96,30.67,38.58,27.33z M67.33,19.22
		c-3.03-1.63-6.08-3.13-9.29-4.3c-2.58-0.94-5.2-1.74-7.97-1.88c-0.92-0.04-1.87,0-2.78,0.15c-2.59,0.44-3.8,2.2-4.26,4.65
		c-1.08,5.8-2.16,11.6-3.27,17.4c-0.1,0.52,0.01,0.75,0.54,0.86c3.21,0.68,6.15-0.1,8.95-1.64c1.5-0.82,2.56-2.14,3.74-3.33
		c2.54-2.55,5.58-4.37,8.77-5.95C64.35,23.9,66.18,21.93,67.33,19.22z"/>
	<path d="M28.97,9.47c0.93,0.12,1.44,0.63,1.38,1.41c-0.06,0.81-0.66,1.29-1.61,1.21c-3.68-0.31-6.93,0.89-9.97,2.82
		c-1.03,0.65-1.98,1.42-2.96,2.14c-0.76,0.56-1.55,0.53-2.02-0.08c-0.5-0.64-0.37-1.37,0.38-1.99c2.98-2.48,6.26-4.43,10.1-5.21
		c1.54-0.31,3.13-0.33,4.7-0.49C28.96,9.34,28.97,9.4,28.97,9.47z"/>
	<path d="M31.77,11.73c0.18-0.89,1.06-1.35,1.91-0.92c1.67,0.83,3.13,1.94,4.36,3.35c0.51,0.59,0.46,1.37-0.07,1.88
		c-0.48,0.46-1.3,0.49-1.82-0.06c-1.1-1.16-2.34-2.12-3.75-2.88C31.88,12.82,31.66,12.34,31.77,11.73z"/>
</g>
</svg>
