<?xml version="1.0" encoding="utf-8"?>
<!-- Generator: Adobe Illustrator 26.3.1, SVG Export Plug-In . SVG Version: 6.00 Build 0)  -->
<svg version="1.1" id="Layer_1" xmlns="http://www.w3.org/2000/svg" xmlns:xlink="http://www.w3.org/1999/xlink" x="0px" y="0px"
	 viewBox="0 0 60 60" style="enable-background:new 0 0 60 60;" xml:space="preserve">
<g>
	<path d="M60.51,32.16c-0.12,0.84-0.22,1.68-0.35,2.51C59,42.08,55.54,48.23,49.9,53.14c-4.5,3.92-9.73,6.36-15.64,7.08
		c-10.9,1.33-20.1-2.11-27.41-10.35c-3.94-4.45-6.31-9.7-7.07-15.58C-1.43,24.85,1.09,16.49,7.5,9.4
		c4.51-4.98,10.13-8.07,16.72-9.37c1.05-0.21,2.12-0.28,3.18-0.42c0.15-0.02,0.3-0.07,0.45-0.11c1.43,0,2.86,0,4.29,0
		c0.7,0.09,1.4,0.17,2.1,0.27c5.89,0.86,11.13,3.18,15.63,7.09c5.66,4.91,9.12,11.07,10.29,18.49c0.13,0.84,0.24,1.67,0.35,2.51
		C60.51,29.29,60.51,30.72,60.51,32.16z M30,1.89C14.53,1.9,1.87,14.57,1.88,30.01C1.88,45.47,14.55,58.14,30,58.13
		c15.46-0.01,28.13-12.67,28.12-28.12C58.11,14.55,45.45,1.88,30,1.89z"/>
	<path d="M29.95,47.99c-2.03,0-4.05,0-6.08,0c-1.42,0-1.78-0.37-1.78-1.8c0-2.54-0.02-5.08,0.01-7.63c0.01-0.54-0.16-0.66-0.67-0.66
		c-2.58,0.03-5.16,0.01-7.75,0.01c-1.26,0-1.67-0.41-1.67-1.68c0-4.15,0-8.3,0-12.45c0-1.26,0.41-1.67,1.67-1.68
		c2.58,0,5.16-0.01,7.75,0.01c0.51,0.01,0.68-0.12,0.67-0.66c-0.03-2.56-0.01-5.12-0.01-7.69c0-1.37,0.38-1.75,1.78-1.75
		c4.07,0,8.14,0,12.22,0c1.46,0,1.81,0.36,1.81,1.83c0,2.54,0.01,5.08-0.01,7.63c0,0.51,0.16,0.63,0.64,0.63
		c2.58-0.02,5.16-0.01,7.75-0.01c1.3,0,1.7,0.41,1.7,1.71c0,4.13,0,8.26,0,12.39c0,1.3-0.4,1.71-1.7,1.71
		c-2.58,0-5.16,0.01-7.75-0.01c-0.48,0-0.65,0.12-0.64,0.63c0.02,2.54,0.01,5.08,0.01,7.63c0,1.47-0.36,1.83-1.81,1.83
		C34.05,47.99,32,47.99,29.95,47.99z M24.51,14.52c0,2.83,0,5.59,0,8.35c0,1.24-0.4,1.66-1.63,1.66c-2.58,0-5.17,0-7.75,0
		c-0.21,0-0.42,0-0.62,0c0,3.7,0,7.31,0,10.98c0.25,0,0.46,0,0.67,0c2.58,0,5.17,0,7.75,0c1.15,0,1.58,0.43,1.58,1.59
		c0,2.58,0,5.16,0,7.75c0,0.21,0,0.43,0,0.66c3.68,0,7.31,0,10.98,0c0-0.25,0-0.47,0-0.68c0-2.54,0-5.08,0-7.63
		c0-1.29,0.39-1.69,1.66-1.69c2.56,0,5.13,0,7.69,0c0.21,0,0.42,0,0.64,0c0-3.69,0-7.31,0-10.98c-0.26,0-0.47,0-0.69,0
		c-2.56,0-5.13,0-7.69,0c-1.2,0-1.61-0.42-1.61-1.62c0-2.58,0-5.16,0-7.75c0-0.21,0-0.42,0-0.64C31.8,14.52,28.19,14.52,24.51,14.52
		z"/>
	<path d="M55.85,29.25c0,0.28,0.02,0.56,0,0.83c-0.07,0.66-0.56,1.11-1.18,1.11c-0.64,0.01-1.11-0.41-1.19-1.09
		c-0.16-1.5-0.21-3.01-0.47-4.49c-0.73-4.18-2.56-7.85-5.35-11.04c-1.54-1.76-3.32-3.24-5.3-4.48c-0.23-0.15-0.47-0.32-0.63-0.53
		c-0.35-0.44-0.31-1.05,0.07-1.48c0.39-0.44,1.01-0.57,1.57-0.21C44.23,8.43,45.1,9,45.9,9.64c5.27,4.21,8.53,9.62,9.61,16.3
		c0.18,1.09,0.27,2.2,0.4,3.3C55.89,29.25,55.87,29.25,55.85,29.25z"/>
	<path d="M30.73,4.15c3.11,0.12,6.13,0.71,9.01,1.9c0.78,0.32,1.1,0.97,0.82,1.66c-0.25,0.61-0.9,0.88-1.65,0.6
		c-2.1-0.8-4.25-1.37-6.49-1.61c-0.79-0.08-1.58-0.08-2.37-0.15c-0.84-0.08-1.29-0.57-1.23-1.3c0.05-0.67,0.58-1.09,1.38-1.1
		C30.37,4.15,30.55,4.15,30.73,4.15z"/>
</g>
</svg>
