<?xml version="1.0" encoding="utf-8"?>
<!-- Generator: Adobe Illustrator 26.3.1, SVG Export Plug-In . SVG Version: 6.00 Build 0)  -->
<svg version="1.1" id="Layer_1" xmlns="http://www.w3.org/2000/svg" xmlns:xlink="http://www.w3.org/1999/xlink" x="0px" y="0px"
	 viewBox="0 0 70 60" style="enable-background:new 0 0 70 60;" xml:space="preserve">
<g>
	<path d="M61.15,35.7c-1.04,0-1.92-0.02-2.81,0.01c-0.7,0.02-1.12-0.27-1.42-0.89c-0.79-1.65-1.63-3.28-2.52-5.06
		c-0.35,1.05-0.65,1.96-0.95,2.88c-0.74,2.3-1.47,4.59-2.21,6.89c-0.04,0.11-0.05,0.26-0.13,0.33c-0.29,0.28-0.57,0.65-0.92,0.77
		c-0.49,0.16-0.87-0.17-1.08-0.64c-1.55-3.54-3.11-7.07-4.65-10.61c-0.28-0.63-0.06-1.24,0.48-1.47c0.55-0.24,1.12,0,1.41,0.64
		c1.06,2.38,2.1,4.77,3.15,7.16c0.12,0.26,0.23,0.53,0.43,0.96c0.14-0.36,0.23-0.58,0.3-0.81c0.97-2.98,1.91-5.97,2.92-8.94
		c0.12-0.36,0.47-0.76,0.81-0.89c0.57-0.21,0.98,0.15,1.25,0.7c1.03,2.1,2.1,4.19,3.12,6.3c0.21,0.43,0.44,0.62,0.93,0.59
		c0.89-0.04,1.79,0.01,2.69-0.03c0.22-0.01,0.53-0.16,0.62-0.34c3.3-6.35,3.31-13.88-1.21-19.76c-2.33-3.03-5.38-5.02-9.09-5.98
		c-0.12-0.03-0.23-0.07-0.35-0.11c-0.73-0.22-1.09-0.73-0.92-1.31c0.17-0.59,0.74-0.88,1.47-0.68c6.75,1.79,11.35,5.95,13.57,12.58
		c1.66,4.99,1.11,9.91-0.92,14.71c-0.11,0.26-0.23,0.53-0.39,0.91c0.99,0,1.9,0,2.8,0c0.39,0,0.77-0.01,1.16,0
		C69.56,33.63,70,34,70,34.66c0,0.64-0.49,1.03-1.3,1.04c-1.52,0.01-3.05-0.02-4.57,0.02c-0.26,0.01-0.63,0.17-0.76,0.37
		c-2.53,4.03-5.84,7.33-9.47,10.34c-5.45,4.52-11.48,8.2-17.41,12.04c-0.24,0.16-0.47,0.4-0.74,0.45c-0.4,0.07-0.92,0.17-1.22-0.01
		c-6.95-4.44-14.03-8.69-20.2-14.23c-2.82-2.53-5.37-5.3-7.39-8.53c-0.14-0.23-0.52-0.41-0.8-0.42c-1.52-0.04-3.05-0.01-4.57-0.02
		c-0.83,0-1.28-0.38-1.27-1.06c0.01-0.65,0.41-1.01,1.22-1.03c1.3-0.02,2.6-0.01,3.89-0.01c-0.52-1.59-1.11-3.09-1.51-4.64
		C1.36,19.22,6.41,9.34,15.82,6.03c6.87-2.41,13.23-1.15,18.85,3.55c0.11,0.09,0.22,0.19,0.33,0.28c0.03,0.03,0.09,0.03,0.16,0.06
		c0.59-0.47,1.18-0.97,1.8-1.42c2.74-1.99,5.8-3.14,9.16-3.52c0.67-0.08,1.19,0.3,1.26,0.9c0.07,0.67-0.35,1.12-1.15,1.2
		c-2.34,0.24-4.56,0.91-6.55,2.15c-1.24,0.78-2.38,1.73-3.51,2.68c-0.89,0.75-1.24,0.8-2.08-0.02c-3.48-3.42-7.67-5.07-12.52-4.9
		C13.28,7.26,6.48,13.57,5.49,21.75c-0.48,4.02,0.32,7.78,2.13,11.36c0.12,0.23,0.49,0.46,0.75,0.47c1.48,0.05,2.95,0,4.43,0.03
		c0.47,0.01,0.68-0.18,0.86-0.58c1.55-3.22,3.12-6.43,4.67-9.65c0.25-0.52,0.52-1.01,1.2-0.97c0.68,0.05,0.88,0.57,1.07,1.12
		c1.66,4.89,3.32,9.77,5.03,14.8c0.15-0.43,0.26-0.74,0.35-1.04c1.21-4.09,2.43-8.18,3.63-12.28c0.15-0.52,0.34-0.97,0.94-1.06
		c0.64-0.1,0.96,0.31,1.24,0.8c1.11,1.9,2.24,3.78,3.37,5.67c0.13,0.22,0.28,0.43,0.47,0.73c1.27-3.12,2.49-6.13,3.71-9.14
		c0.34-0.83,0.62-1.68,1.04-2.47c0.19-0.35,0.64-0.76,0.98-0.76c0.34,0,0.84,0.39,1,0.73c0.79,1.65,1.51,3.35,2.23,5.03
		c0.31,0.72,0.14,1.29-0.43,1.55c-0.59,0.27-1.14,0-1.48-0.75c-0.41-0.92-0.82-1.85-1.28-2.89c-0.38,0.92-0.73,1.74-1.06,2.56
		c-1.14,2.82-2.29,5.63-3.43,8.45c-0.2,0.51-0.4,1-1.05,1.06c-0.65,0.06-0.93-0.39-1.21-0.86c-1.06-1.79-2.12-3.57-3.19-5.36
		c-0.12-0.2-0.25-0.4-0.45-0.7c-0.11,0.33-0.2,0.57-0.28,0.8c-1.31,4.44-2.61,8.88-3.95,13.32c-0.12,0.39-0.43,0.85-0.78,1.03
		c-0.59,0.31-1.1-0.07-1.38-0.87c-1.26-3.67-2.51-7.35-3.76-11.02c-0.51-1.5-1.03-3-1.59-4.63c-0.16,0.28-0.27,0.45-0.35,0.63
		c-1.28,2.63-2.58,5.25-3.83,7.88c-0.32,0.68-0.77,0.97-1.53,0.95c-1.44-0.04-2.89-0.01-4.57-0.01c0.95,1.2,1.73,2.29,2.61,3.3
		c3.47,4.02,7.6,7.3,11.97,10.28c3.63,2.48,7.34,4.84,11.03,7.24c0.21,0.14,0.63,0.2,0.81,0.08c4.8-3.18,9.64-6.28,14.33-9.61
		c3.98-2.82,7.56-6.12,10.48-10.07C60.56,36.56,60.81,36.19,61.15,35.7z"/>
</g>
</svg>
