<?xml version="1.0" encoding="utf-8"?>
<!-- Generator: Adobe Illustrator 26.3.1, SVG Export Plug-In . SVG Version: 6.00 Build 0)  -->
<svg version="1.1" id="Layer_1" xmlns="http://www.w3.org/2000/svg" xmlns:xlink="http://www.w3.org/1999/xlink" x="0px" y="0px"
	 viewBox="0 0 70 60" style="enable-background:new 0 0 70 60;" xml:space="preserve">
<g>
	<path d="M26.93,20.33c-0.33,0.62-0.64,1.19-0.92,1.7c-1.07-0.31-2.06-0.67-3.08-0.87c-1.75-0.35-3.21,0.31-4.38,1.59
		c-1.56,1.71-2.31,3.82-2.87,6.01c-0.89,3.46-1.93,6.86-3.57,10.04c-1.64,3.18-3.64,6.08-6.42,8.39c-0.07,0.06-0.15,0.09-0.27,0.15
		c1.91,0.95,4.99,0.58,7.54-3.75c0.59,0.28,1.2,0.56,1.85,0.87c-0.96,1.83-2.2,3.3-3.91,4.38c1.97,0.69,4.63-0.84,7.15-4.11
		c0.57,0.33,1.15,0.67,1.88,1.1c-1.04,1.17-2.02,2.28-3.02,3.41c1.08,0.3,2.11,0.16,3.02-0.52c1.08-0.8,1.83-1.85,2.03-3.2
		c0.56-3.87,1.09-7.75,1.64-11.63c0.26-1.81,0.48-3.62,0.8-5.42c0.75-4.27,4.5-7.81,8.78-8.49c5.81-0.92,11.04,2.78,12.26,8.09
		c0.43,1.88,0.62,3.82,0.89,5.73c0.48,3.33,0.94,6.67,1.41,10c0.16,1.15,0.19,2.32,0.85,3.35c0.91,1.4,2.05,2.35,3.83,2.22
		c0.11-0.01,0.22-0.01,0.33-0.03c0.11-0.02,0.21-0.07,0.31-0.1c-0.99-1.11-1.97-2.21-3.03-3.38c0.71-0.42,1.28-0.76,1.88-1.12
		c1.8,2.41,3.79,4.45,7.31,4.23c-1.85-1.18-3.11-2.66-4.06-4.49c0.64-0.3,1.23-0.58,1.86-0.89c1.09,1.83,2.37,3.44,4.51,4.05
		c0.99,0.28,1.98,0.21,2.9-0.15c-0.92-0.96-1.88-1.87-2.73-2.87c-2.65-3.1-4.51-6.66-5.8-10.51c-0.8-2.37-1.38-4.81-2.17-7.19
		c-0.36-1.09-0.89-2.17-1.52-3.13c-1.8-2.75-4.36-3.41-7.33-2.01c-0.33,0.16-0.66,0.32-1.05,0.5c-0.34-0.61-0.66-1.17-0.98-1.74
		c3.5-2.26,7.85-2.27,10.67,1.44c1.58,2.08,2.38,4.49,3.02,6.97c1.04,4.09,2.47,8.02,4.76,11.6c1.44,2.25,3.13,4.26,5.36,5.77
		c0.65,0.44,1.37,0.77,2.14,1.2c-1.71,1.13-3.4,2.13-5.46,2.35c-0.38,0.04-0.78,0.14-1.12,0.3c-2.01,0.97-4.06,1.23-6.21,0.53
		c-0.23-0.07-0.53-0.07-0.75,0.03c-2.21,0.97-4.37,1.1-6.6-0.39c0.47,3.36,0.91,6.57,1.37,9.83c-10.03,0-20.05,0-30.11,0
		c0.45-3.23,0.9-6.45,1.33-9.54c-1.02,0.28-2,0.65-3.03,0.81c-1.18,0.19-2.3-0.22-3.4-0.64c-0.26-0.1-0.61-0.17-0.87-0.09
		c-1.89,0.61-3.74,0.52-5.54-0.26c-0.8-0.35-1.59-0.57-2.44-0.7c-1.79-0.26-3.26-1.25-4.81-2.21c0.12-0.09,0.19-0.17,0.28-0.21
		c3.19-1.39,5.35-3.89,7.18-6.71c2.42-3.71,3.85-7.83,4.93-12.1c0.54-2.12,1.24-4.18,2.51-5.99c2.5-3.57,6-4.49,9.95-2.66
		C26.32,20.01,26.61,20.17,26.93,20.33z M47.6,58.09c-0.02-0.32-0.03-0.58-0.07-0.84C47.02,53.63,46.5,50.02,46,46.4
		c-0.8-5.71-1.59-11.41-2.4-17.12c-0.55-3.85-3.95-7.03-7.68-7.34c-4.86-0.4-8.37,2.8-9.24,6.19c-0.43,1.7-0.61,3.46-0.86,5.2
		c-0.53,3.66-1.03,7.32-1.54,10.98c-0.51,3.62-1.01,7.23-1.52,10.85c-0.14,0.97-0.26,1.93-0.39,2.92c0.78,0,1.46,0,2.2,0
		c0.47-3.36,0.94-6.69,1.42-10.06c0.74,0.11,1.38,0.21,2.06,0.32c-0.46,3.29-0.9,6.5-1.35,9.74c0.77,0,1.47,0,2.22,0
		c0.19-1.32,0.38-2.62,0.58-3.99c0.7,0.1,1.36,0.19,2.06,0.29c-0.17,1.26-0.34,2.45-0.51,3.68c2.65,0,5.27,0,7.94,0
		c-0.28-2.03-0.55-4-0.83-6.02c0.72-0.1,1.36-0.2,2.06-0.3c0.3,2.14,0.6,4.24,0.9,6.32c0.78,0,1.5,0,2.26,0
		c-0.59-4.23-1.17-8.41-1.76-12.63c0.72-0.1,1.38-0.19,2.07-0.28c0.61,4.36,1.21,8.64,1.81,12.94
		C46.21,58.09,46.86,58.09,47.6,58.09z"/>
	<path d="M34.97,19.57c-4.12-0.02-7.52-3.46-7.5-7.57c0.03-4.12,3.47-7.52,7.59-7.48c4.09,0.03,7.47,3.45,7.47,7.54
		C42.52,16.17,39.09,19.59,34.97,19.57z M34.99,17.47c2.94,0.01,5.44-2.49,5.43-5.43c-0.01-2.93-2.43-5.37-5.38-5.42
		c-2.92-0.05-5.44,2.44-5.46,5.4C29.55,14.96,32.03,17.46,34.99,17.47z"/>
	<path d="M27.02,8.7c-0.49,0.52-0.94,0.99-1.39,1.46c-2.23-1.92-2.35-4.89-0.29-7c1.65-1.68,3.74-2.52,6-2.95
		c3.58-0.68,7.09-0.49,10.47,1c1.26,0.56,2.38,1.32,3.25,2.42c1.65,2.11,1.35,4.84-0.77,6.6c-0.44-0.48-0.89-0.96-1.26-1.37
		c0.34-0.67,0.79-1.25,0.94-1.9c0.3-1.33-0.53-2.21-1.49-2.93c-1.46-1.09-3.16-1.63-4.93-1.89c-3.06-0.44-6.07-0.23-8.87,1.2
		c-0.75,0.38-1.44,0.94-2.03,1.54c-0.89,0.9-0.88,2.21-0.09,3.25C26.68,8.32,26.83,8.48,27.02,8.7z"/>
</g>
</svg>
